<svg width="26" height="26" viewBox="0 0 26 26" fill="none" xmlns="http://www.w3.org/2000/svg">
<g clip-path="url(#clip0_1_277)">
<path d="M25.4818 6.70082C25.3348 6.14769 25.0451 5.64286 24.6417 5.23686C24.2383 4.83087 23.7353 4.53795 23.1831 4.38741C21.1504 3.84082 13.0254 3.84082 13.0254 3.84082C13.0254 3.84082 4.90039 3.84082 2.86766 4.38741C2.31548 4.53795 1.81252 4.83087 1.40912 5.23686C1.00572 5.64286 0.716022 6.14769 0.569027 6.70082C0.0253907 8.74241 0.0253906 12.9999 0.0253906 12.9999C0.0253906 12.9999 0.0253907 17.2574 0.569027 19.299C0.716022 19.8521 1.00572 20.357 1.40912 20.763C1.81252 21.169 2.31548 21.4619 2.86766 21.6124C4.90039 22.159 13.0254 22.159 13.0254 22.159C13.0254 22.159 21.1504 22.159 23.1831 21.6124C23.7353 21.4619 24.2383 21.169 24.6417 20.763C25.0451 20.357 25.3348 19.8521 25.4818 19.299C26.0254 17.2574 26.0254 12.9999 26.0254 12.9999C26.0254 12.9999 26.0254 8.74241 25.4818 6.70082Z" fill="#FAFAFA"/>
<path d="M10.3672 16.8659V9.13379L17.1626 12.9999L10.3672 16.8659Z" fill="#214E41"/>
</g>
<defs>
<clipPath id="clip0_1_277">
<rect width="26" height="26" fill="white"/>
</clipPath>
</defs>
</svg>
