<svg width="50" height="50" viewBox="0 0 50 50" fill="none" xmlns="http://www.w3.org/2000/svg">
<g clip-path="url(#clip0_0_557)">
<g opacity="0.848005" filter="url(#filter0_f_0_557)">
<rect y="25" width="50" height="25" rx="12.5" fill="#F03E3D"/>
</g>
<rect width="50" height="50" rx="19" fill="#F03E3D"/>
<path d="M25 33.1429C25.1429 33.1429 25.2857 33.0893 25.3929 32.9821L30.9554 27.625C31.0357 27.5446 33 25.75 33 23.6071C33 20.9911 31.4018 19.4286 28.7321 19.4286C27.1696 19.4286 25.7054 20.6607 25 21.3571C24.2946 20.6607 22.8304 19.4286 21.2679 19.4286C18.5982 19.4286 17 20.9911 17 23.6071C17 25.75 18.9643 27.5446 19.0357 27.6071L24.6071 32.9821C24.7143 33.0893 24.8571 33.1429 25 33.1429Z" fill="white"/>
</g>
<defs>
<filter id="filter0_f_0_557" x="-27.1828" y="-2.18282" width="104.366" height="79.3656" filterUnits="userSpaceOnUse" color-interpolation-filters="sRGB">
<feFlood flood-opacity="0" result="BackgroundImageFix"/>
<feBlend mode="normal" in="SourceGraphic" in2="BackgroundImageFix" result="shape"/>
<feGaussianBlur stdDeviation="13.5914" result="effect1_foregroundBlur_0_557"/>
</filter>
<clipPath id="clip0_0_557">
<rect width="50" height="50" fill="white"/>
</clipPath>
</defs>
</svg>
