<svg width="605" height="496" viewBox="0 0 605 496" fill="none" xmlns="http://www.w3.org/2000/svg">
<path fill-rule="evenodd" clip-rule="evenodd" d="M330.352 465.954C207.094 453.421 105.073 363.113 60.3698 248C15.6671 132.887 183.974 34.8284 305.198 29.2104C426.421 23.5924 520 131.297 520 253.974C520 376.651 453.611 478.487 330.352 465.954Z" fill="#FFE5D2"/>
<path fill-rule="evenodd" clip-rule="evenodd" d="M482.001 343.694C482.102 343.635 482.73 344.465 483.66 346.099C484.593 347.727 485.754 350.2 486.833 353.392C489.045 359.752 490.433 369.142 489.61 379.383C488.794 389.621 486.427 398.609 484.601 405.007C482.733 411.407 481.358 415.292 481.121 415.227C480.859 415.154 481.787 411.135 483.32 404.672C484.814 398.21 486.945 389.27 487.743 379.241C488.546 369.215 487.404 360.089 485.569 353.78C483.786 347.44 481.707 343.846 482.001 343.694Z" fill="white"/>
<path fill-rule="evenodd" clip-rule="evenodd" d="M488.31 292.45C488.427 292.398 489.188 293.789 490.456 296.355C491.724 298.921 493.504 302.66 495.611 307.326C499.79 316.657 505.415 329.719 509.495 344.884C511.5 352.47 512.867 359.844 513.559 366.617C514.257 373.388 514.328 379.54 513.979 384.674C513.641 389.812 512.993 393.934 512.368 396.736C511.751 399.545 511.262 401.057 511.152 401.033C510.806 400.966 512.333 394.784 512.657 384.613C513.061 374.463 511.728 360.361 507.685 345.366C503.652 330.367 498.257 317.297 494.396 307.85C492.451 303.123 490.879 299.297 489.79 296.652C488.727 293.996 488.192 292.503 488.31 292.45Z" fill="white"/>
<path fill-rule="evenodd" clip-rule="evenodd" d="M254.833 352.595C255.05 352.828 252.927 354.853 250.172 358.612C249.488 359.557 248.745 360.589 248.05 361.769C247.29 362.906 246.629 364.21 245.893 365.556C244.525 368.301 243.227 371.42 242.225 374.815C241.267 378.223 240.709 381.555 240.407 384.607C240.316 386.137 240.183 387.594 240.221 388.959C240.183 390.329 240.262 391.6 240.338 392.764C240.672 397.412 241.394 400.256 241.086 400.339C240.899 400.403 239.711 397.656 239.022 392.899C238.857 391.711 238.699 390.405 238.669 388.992C238.563 387.58 238.639 386.071 238.687 384.481C238.902 381.311 239.43 377.835 240.427 374.298C241.465 370.771 242.864 367.547 244.37 364.748C245.174 363.375 245.911 362.056 246.753 360.918C247.529 359.736 248.358 358.714 249.13 357.796C252.243 354.135 254.711 352.442 254.833 352.595Z" fill="white"/>
<path fill-rule="evenodd" clip-rule="evenodd" d="M259.816 369.001C259.973 369.252 258.79 370.156 257.245 371.887C256.463 372.741 255.639 373.849 254.828 375.133C254.051 376.438 253.307 377.936 252.723 379.587C252.164 381.247 251.827 382.885 251.635 384.393C251.481 385.903 251.447 387.282 251.537 388.439C251.687 390.753 252.062 392.196 251.782 392.297C251.582 392.381 250.74 391.061 250.225 388.615C249.956 387.395 249.846 385.902 249.916 384.248C250.025 382.599 250.341 380.791 250.953 378.977C251.589 377.171 252.455 375.554 253.386 374.187C254.35 372.841 255.358 371.734 256.32 370.94C258.233 369.329 259.71 368.809 259.816 369.001Z" fill="white"/>
<path fill-rule="evenodd" clip-rule="evenodd" d="M190.645 216.107C190.742 216.023 191.58 216.847 193.017 218.42C193.748 219.198 194.61 220.178 195.523 221.386C196.446 222.584 197.555 223.914 198.596 225.512C199.133 226.301 199.697 227.127 200.283 227.988C200.863 228.855 201.389 229.803 201.975 230.761C203.174 232.664 204.249 234.811 205.418 237.051C207.626 241.596 209.737 246.753 211.418 252.344C213.045 257.951 214.078 263.429 214.695 268.442C214.931 270.959 215.195 273.346 215.222 275.593C215.251 276.716 215.325 277.798 215.308 278.842C215.285 279.883 215.261 280.882 215.239 281.836C215.233 283.746 215.025 285.463 214.902 286.971C214.792 288.481 214.601 289.772 214.41 290.821C214.059 292.923 213.804 294.071 213.676 294.053C213.346 294.009 213.967 289.351 213.916 281.822C213.898 280.88 213.882 279.897 213.864 278.869C213.842 277.843 213.733 276.778 213.672 275.675C213.579 273.466 213.26 271.124 212.984 268.656C212.282 263.741 211.219 258.379 209.622 252.876C207.971 247.388 205.95 242.308 203.866 237.801C202.759 235.58 201.752 233.44 200.63 231.535C200.081 230.576 199.593 229.623 199.055 228.75C198.511 227.879 197.991 227.043 197.493 226.244C193.445 219.896 190.39 216.324 190.645 216.107Z" fill="white"/>
<path fill-rule="evenodd" clip-rule="evenodd" d="M211.845 224.879C212.004 224.737 214.154 226.748 216.889 230.625C218.265 232.555 219.715 234.987 221.127 237.791C222.498 240.615 223.806 243.821 224.849 247.296C225.862 250.78 226.505 254.184 226.889 257.299C227.227 260.421 227.332 263.249 227.225 265.618C227.035 270.357 226.322 273.214 226.113 273.182C225.811 273.145 226.053 270.252 225.9 265.616C225.839 263.3 225.6 260.549 225.179 257.524C224.712 254.504 224.036 251.212 223.055 247.827C222.04 244.452 220.817 241.32 219.569 238.532C218.279 235.762 216.984 233.324 215.777 231.345C213.386 227.371 211.613 225.074 211.845 224.879Z" fill="white"/>
<path fill-rule="evenodd" clip-rule="evenodd" d="M137.611 378.076L135.981 374.749L90.6117 409.414L110.405 441.48L155.567 403.401L137.611 378.076Z" fill="#FF7B5B"/>
<path fill-rule="evenodd" clip-rule="evenodd" d="M92.5129 410.156L109.901 440.226L111.013 439.73L95.5284 411.614L92.5129 410.156Z" fill="#D7D4D4"/>
<path fill-rule="evenodd" clip-rule="evenodd" d="M136.715 377.418L92.5129 410.155C92.5129 410.155 92.6983 410.858 93.7952 411.291C94.8934 411.725 95.5284 411.614 95.5284 411.614L141.999 379.809C141.999 379.809 139.32 379.186 138.349 378.461C137.376 377.734 136.715 377.418 136.715 377.418Z" fill="#F5F3F3"/>
<path fill-rule="evenodd" clip-rule="evenodd" d="M143.135 378.526L94.6985 410.879L110.43 440.694L112.964 444.823L161.402 408.973C161.402 408.973 156.301 401.358 153.238 396.761C150.175 392.163 144.161 381.321 143.834 380.626C143.506 379.931 143.135 378.526 143.135 378.526Z" fill="#FF7B5B"/>
<path fill-rule="evenodd" clip-rule="evenodd" d="M542.58 155.166L543.948 152.371L582.046 181.481L565.425 208.408L527.501 176.431L542.58 155.166Z" fill="#775298"/>
<path fill-rule="evenodd" clip-rule="evenodd" d="M580.45 182.103L565.85 207.354L564.915 206.939L577.918 183.328L580.45 182.103Z" fill="#D7D4D4"/>
<path fill-rule="evenodd" clip-rule="evenodd" d="M543.333 154.612L580.45 182.103C580.45 182.103 580.294 182.693 579.374 183.057C578.451 183.421 577.917 183.328 577.917 183.328L538.895 156.62C538.895 156.62 541.144 156.098 541.961 155.488C542.777 154.878 543.333 154.612 543.333 154.612Z" fill="#F5F3F3"/>
<path fill-rule="evenodd" clip-rule="evenodd" d="M537.941 155.544L578.615 182.711L565.406 207.748L563.277 211.214L522.601 181.11C522.601 181.11 526.886 174.715 529.457 170.855C532.031 166.994 537.08 157.889 537.354 157.306C537.629 156.724 537.941 155.544 537.941 155.544Z" fill="#775298"/>
<path fill-rule="evenodd" clip-rule="evenodd" d="M83.4452 102.772C83.4452 102.772 80.5687 104.763 82.0063 108.083C83.4452 111.402 89.7513 121.248 98.2704 120.916C98.6192 120.904 87.5385 102.772 87.5385 102.772H83.4452Z" fill="#FF7B5B"/>
<path fill-rule="evenodd" clip-rule="evenodd" d="M70.4132 284.294C70.4132 284.294 59.7603 274.777 56.3496 276.482C52.1828 278.565 28.333 301.933 29.265 312.942C29.6479 317.451 34.8967 313.588 44.2496 303.886C53.6053 294.185 65.3851 298.343 65.3851 298.343L70.4132 284.294Z" fill="#775298"/>
<path fill-rule="evenodd" clip-rule="evenodd" d="M96.2954 300.343L83.4351 292.628C83.4351 292.628 50.1001 323.88 55.308 328.047C59.2582 331.207 61.5801 328.373 70.9345 318.671C80.2874 308.972 92.1381 314.549 92.1381 314.549L96.2954 300.343Z" fill="#775298"/>
<path fill-rule="evenodd" clip-rule="evenodd" d="M174.854 197.526L177.266 231.771L123.731 217.825L174.854 197.526Z" fill="#F3A683"/>
<path fill-rule="evenodd" clip-rule="evenodd" d="M123.731 219.003C123.731 219.003 170.559 221.955 176.794 219.874C176.794 219.874 185.946 309.777 169.662 319.476C153.378 329.178 116.835 314.972 116.835 314.972L126.702 295.571L147.975 294.185V259.54L146.449 259.886L123.731 219.003Z" fill="#112129"/>
<path fill-rule="evenodd" clip-rule="evenodd" d="M65.0319 280.327C65.0319 280.327 53.2535 285.178 57.0647 296.958C57.0647 296.958 97.2713 328.485 116.836 321.209C127.797 317.133 139.571 286.035 147.808 259.466L176.795 219.874C176.795 219.874 163.124 220.558 158.563 220.54C149.846 220.507 123.732 219.003 123.732 219.003C123.732 219.003 110.091 290.375 105.23 292.107C100.37 293.838 65.0319 280.327 65.0319 280.327Z" fill="#22343D"/>
<path fill-rule="evenodd" clip-rule="evenodd" d="M134.644 129.487C134.644 129.487 162.708 103.155 167.557 96.2248C172.407 89.2958 182.804 66.0833 195.619 56.3827L189.384 43.2169C189.384 43.2169 193.196 41.1388 195.619 46.6807C195.619 46.6807 204.626 28.6666 206.705 29.0114C208.786 29.3575 202.549 42.8707 202.549 42.8707C202.549 42.8707 211.213 30.3972 213.637 30.7446C216.06 31.0907 207.4 44.7662 207.4 44.7662C207.4 44.7662 217.099 33.5162 218.486 34.902C219.872 36.2878 210.864 44.7662 210.864 44.7662C210.864 44.7662 220.564 39.1971 221.604 41.0325C222.644 42.8707 211.904 47.7204 211.904 47.7204C211.904 47.7204 210.864 55.6891 204.283 59.1529C204.283 59.1529 191.249 94.3662 179.469 105.799L141.628 145.127L134.644 129.487Z" fill="#FFC6B2"/>
<path fill-rule="evenodd" clip-rule="evenodd" d="M101.143 143.134C101.143 143.134 74.5517 170.951 67.5778 175.735C60.6026 180.518 37.2951 190.698 27.4761 203.425L14.3691 197.066C14.3691 197.066 12.2557 200.856 17.7757 203.332C17.7757 203.332 -0.323913 212.172 0.00447619 214.255C0.330141 216.337 13.9004 210.227 13.9004 210.227C13.9004 210.227 1.34665 218.774 1.67095 221.201C1.99525 223.628 15.7495 215.095 15.7495 215.095C15.7495 215.095 4.4098 224.689 5.78332 226.087C7.1541 227.486 15.7181 218.56 15.7181 218.56C15.7181 218.56 10.0578 228.207 11.8865 229.263C13.7124 230.319 18.6627 219.625 18.6627 219.625C18.6627 219.625 26.6395 218.663 30.1673 212.112C30.1673 212.112 63.5199 198.841 75.064 187.169L116.569 157.759L101.143 143.134Z" fill="#FFC6B2"/>
<path fill-rule="evenodd" clip-rule="evenodd" d="M111.112 132.047L97.663 145.213L101.074 160.055C101.074 160.055 114.324 191.865 116.327 199.626C119.44 211.693 114.404 230.093 114.404 230.093C114.404 230.093 136.867 228.227 157.306 227.535C177.744 226.842 184.43 220.257 184.43 220.257C184.43 220.257 166.709 161.236 154.474 144.737C142.238 128.241 137.788 123.077 137.788 123.077L119.773 127.015L111.112 132.047Z" fill="white"/>
<path fill-rule="evenodd" clip-rule="evenodd" d="M150.582 142.792L164.596 133.838C164.596 133.838 166.736 124.245 149.837 112.93L130.021 125.347L150.582 142.792Z" fill="white"/>
<path fill-rule="evenodd" clip-rule="evenodd" d="M100.497 144.172C92.8146 145.25 78.7756 164.72 77.21 164.684C77.21 164.684 87.0903 180.808 94.9171 181.331C94.9171 181.331 129.36 140.123 100.497 144.172Z" fill="white"/>
<path fill-rule="evenodd" clip-rule="evenodd" d="M127.616 131.503C127.616 131.503 116.449 123.159 116.836 119.833C116.934 118.995 118.482 117.635 118.884 116.428C121.049 109.932 110.61 93.195 104.196 89.6671C99.1507 86.8928 101.362 86.6475 90.7434 92.9579C80.1245 99.2682 86.1745 110.18 90.9164 115.824C95.3994 121.159 100.534 123.444 105.153 123.83L111.721 138.418L127.616 131.503Z" fill="#FFC6B2"/>
<path fill-rule="evenodd" clip-rule="evenodd" d="M107.466 143.085C105.354 137.904 109.354 131.378 116.4 128.504C123.449 125.629 130.871 127.499 132.987 132.677C135.098 137.856 128.006 145.642 124.048 147.257C120.09 148.872 109.577 148.263 107.466 143.085Z" fill="#FFC6B2"/>
<path fill-rule="evenodd" clip-rule="evenodd" d="M90.9169 115.824C90.9169 115.824 87.2951 115.624 86.8931 118.037C86.4898 120.452 93.5317 120.452 96.148 118.641L90.9169 115.824Z" fill="#FFC6B2"/>
<path fill-rule="evenodd" clip-rule="evenodd" d="M92.728 118.037C92.0399 113.676 87.392 110.433 87.6236 106.183C89.8515 106.2 91.2822 103.441 90.2685 101.082C89.8692 100.156 89.1934 99.3625 88.7614 98.4482C88.3308 97.5352 88.2164 96.3388 88.8772 95.8224C89.1906 95.5785 89.6144 95.5362 90.0205 95.4954C93.3234 95.1561 98.9824 96.1467 102.022 95.0198C104.917 93.9474 108.018 91.8612 107.717 88.3156C107.454 85.2279 104.727 82.7247 102.223 80.8334C100.788 79.7487 96.6877 76.9131 95.1412 77.1706C92.7797 77.5631 92.2075 80.7135 92.0371 83.3502C90.3856 81.7777 87.9493 82.0298 86.5131 83.3093C85.0769 84.5888 84.397 86.6219 83.7715 88.5841C83.1447 90.5476 82.4811 92.5861 81.064 93.8902C79.7436 95.1057 77.6547 96.0254 77.9286 98.0926C78.2543 100.556 81.4728 101.432 82.9608 103.534C82.5942 103.018 82.2835 106.308 82.4947 106.865C83.1297 108.545 84.7144 109.657 85.8604 110.942C88.3008 113.681 89.4945 116.439 92.728 118.037Z" fill="#FF7B5B"/>
<path fill-rule="evenodd" clip-rule="evenodd" d="M112.961 108.064L104.709 112.332C104.709 112.332 114.621 119.526 112.961 108.064Z" fill="white"/>
<path fill-rule="evenodd" clip-rule="evenodd" d="M101.608 109.756C102.059 110.612 101.392 111.849 100.117 112.519C98.8434 113.19 97.4454 113.04 96.9944 112.184C96.5447 111.328 97.211 110.092 98.4851 109.421C99.7605 108.75 101.157 108.9 101.608 109.756Z" fill="#FFB2A0"/>
<path fill-rule="evenodd" clip-rule="evenodd" d="M113.657 101.525C114.109 102.381 113.441 103.618 112.167 104.288C110.893 104.959 109.495 104.809 109.044 103.953C108.594 103.097 109.26 101.86 110.534 101.19C111.81 100.519 113.206 100.669 113.657 101.525Z" fill="#FFB2A0"/>
<path fill-rule="evenodd" clip-rule="evenodd" d="M107.2 107.761C107.162 107.713 107.316 107.51 107.673 107.253C108.014 106.99 108.607 106.706 109.047 106.232C109.483 105.773 109.639 104.815 108.972 104.68C108.278 104.445 107.491 105.24 106.587 105.997C106.364 106.182 106.143 106.366 105.924 106.547C105.719 106.735 105.289 107.01 104.842 106.954C103.99 106.817 103.628 106.249 103.301 105.868C102.647 105.029 102.243 104.15 102.02 103.39C101.577 101.853 101.776 100.861 101.882 100.869C102.031 100.862 102.08 101.816 102.642 103.168C102.926 103.839 103.35 104.603 103.967 105.323C104.268 105.689 104.647 106.029 104.917 106.04C105.03 106.046 105.118 106.007 105.331 105.829C105.548 105.648 105.766 105.464 105.986 105.278C106.441 104.911 106.835 104.539 107.356 104.192C107.861 103.852 108.582 103.636 109.228 103.856C109.917 104.037 110.322 104.841 110.202 105.4C110.125 105.969 109.841 106.389 109.52 106.696C108.84 107.264 108.232 107.401 107.849 107.573C107.457 107.722 107.241 107.814 107.2 107.761Z" fill="#FF7B5B"/>
<path fill-rule="evenodd" clip-rule="evenodd" d="M105.153 123.83C105.153 123.83 110.417 123.86 113.273 122.101C113.273 122.101 110.857 125.069 106.022 125.837L105.153 123.83Z" fill="#FFA192"/>
<path fill-rule="evenodd" clip-rule="evenodd" d="M107.436 100.224C107.388 100.484 106.652 100.565 105.874 100.908C105.085 101.227 104.516 101.7 104.296 101.553C104.072 101.434 104.444 100.494 105.509 100.045C106.573 99.5945 107.505 99.9787 107.436 100.224Z" fill="#22343D"/>
<path fill-rule="evenodd" clip-rule="evenodd" d="M97.1205 106.991C96.9215 106.843 97.2336 105.996 97.9912 105.147C98.7583 104.28 99.7381 103.991 99.8416 104.234C99.9506 104.47 99.3538 105.019 98.682 105.781C97.9994 106.54 97.3358 107.151 97.1205 106.991Z" fill="#22343D"/>
<path fill-rule="evenodd" clip-rule="evenodd" d="M93.1217 105.683C92.6952 105.366 92.3628 104.013 93.9952 102.19C95.6426 100.326 97.4835 100.654 97.7042 101.172C97.9413 101.681 97.3281 102.404 95.8824 104.043C94.4149 105.677 93.5837 106.029 93.1217 105.683Z" fill="#FF7B5B"/>
<path fill-rule="evenodd" clip-rule="evenodd" d="M101.787 98.5008C101.551 98.0593 101.812 96.7743 103.935 95.8791C106.088 94.9538 107.522 95.9744 107.502 96.5045C107.498 97.0318 106.687 97.4011 104.796 98.216C102.891 99.0158 102.042 98.9818 101.787 98.5008Z" fill="#FF7B5B"/>
<path fill-rule="evenodd" clip-rule="evenodd" d="M554.6 111.283C554.739 111.42 552.452 113.993 547.708 116.795C543.022 119.593 535.648 122.368 527.168 122.43C518.687 122.493 511.273 119.828 506.546 117.098C501.762 114.368 499.437 111.828 499.573 111.687C499.771 111.438 502.371 113.58 507.162 115.925C511.906 118.28 519.057 120.617 527.153 120.558C535.251 120.497 542.365 118.055 547.075 115.631C551.829 113.215 554.399 111.035 554.6 111.283Z" fill="#775298"/>
<path fill-rule="evenodd" clip-rule="evenodd" d="M502.86 107.397C502.731 107.681 500.199 106.631 495.934 105.68C493.808 105.178 491.229 104.791 488.357 104.434C485.473 104.115 482.286 103.862 478.921 103.622C475.554 103.386 472.331 103.115 469.404 102.753C466.477 102.364 463.847 101.902 461.681 101.317C457.331 100.181 454.868 98.8379 454.954 98.6485C455.067 98.3623 457.657 99.2467 461.964 100.022C464.113 100.432 466.706 100.75 469.593 101.037C472.488 101.302 475.684 101.518 479.055 101.755C482.429 101.995 485.657 102.304 488.582 102.724C491.504 103.183 494.126 103.717 496.271 104.399C500.578 105.714 502.957 107.218 502.86 107.397Z" fill="#775298"/>
<mask id="mask0_0_574" style="mask-type:luminance" maskUnits="userSpaceOnUse" x="434" y="35" width="171" height="84">
<path fill-rule="evenodd" clip-rule="evenodd" d="M434.468 35.2061H604.354V118.441H434.468V35.2061Z" fill="white"/>
</mask>
<g mask="url(#mask0_0_574)">
<path fill-rule="evenodd" clip-rule="evenodd" d="M451.556 52.0653C459.642 50.3497 468.019 51.8268 476.172 53.1854C484.326 54.5439 492.79 55.769 500.761 53.5806C515.153 49.6303 526.079 35.0896 541.003 35.2068C547.149 35.2545 552.941 37.8789 558.929 39.2674C566.363 40.9925 574.108 40.8072 581.639 42.0377C589.172 43.2681 596.952 46.2973 601.209 52.6322C606.259 60.1498 604.875 70.7539 599.575 78.0985C594.276 85.4445 585.79 89.9166 577.095 92.4512C571.03 94.2185 564.568 95.2405 559.32 98.7574C554.011 102.315 550.544 108.041 545.598 112.087C533.186 122.237 513.87 119.328 501.049 109.699C497.828 107.281 494.842 104.474 491.223 102.704C476.503 95.498 455.332 105.036 442.654 91.9265C429.78 78.6122 431.614 56.2949 451.556 52.0653Z" fill="#775298"/>
</g>
<path fill-rule="evenodd" clip-rule="evenodd" d="M447.516 309.916C447.516 309.916 461.003 338.825 462.581 333.472C464.155 328.117 463.634 315.261 462.79 313.425C461.941 311.59 456.428 303.481 456.428 303.481L447.516 309.916Z" fill="#FFB2A0"/>
<path fill-rule="evenodd" clip-rule="evenodd" d="M545.04 76.1517C546.288 77.7501 545.454 76.0331 546.867 78.3387C552.74 78.1343 556.682 73.1648 556.682 73.1648C556.682 73.1648 566.004 73.4114 565.896 71.7463C565.79 70.0784 556.96 70.7011 556.96 70.7011C556.96 70.7011 566.301 67.7674 565.789 66.3026C565.279 64.8391 554.495 69.5075 554.495 69.5075C554.495 69.5075 565.377 62.7529 563.769 61.6696C562.163 60.589 551.692 66.4851 551.692 66.4851C551.692 66.4851 560.792 59.0111 559.428 58.0477C558.067 57.0843 545.445 66.8122 545.445 66.8122C545.629 62.0266 542.196 62.1942 542.196 62.1942L542.338 73.8788C542.338 73.8788 544.465 75.4159 545.04 76.1517Z" fill="#FFC6B2"/>
<path fill-rule="evenodd" clip-rule="evenodd" d="M406.867 23.2676C404.872 23.6355 406.418 22.9419 403.829 23.7322C399.577 19.677 400.141 13.3039 400.141 13.3039C400.141 13.3039 393.009 7.30017 394.192 6.12694C395.381 4.95098 401.569 11.2791 401.569 11.2791C401.569 11.2791 396.534 2.8825 397.888 2.1276C399.241 1.37269 404.208 12.0231 404.208 12.0231C404.208 12.0231 400.554 -0.252932 402.475 0.00460659C404.393 0.262145 408.31 11.6211 408.31 11.6211C408.31 11.6211 406.467 -0.00765714 408.123 0.176299C409.781 0.358892 412.764 16.0142 412.764 16.0142C415.803 12.3133 418.257 14.7184 418.257 14.7184L410.554 23.1899C410.554 23.1899 407.784 23.0999 406.867 23.2676Z" fill="#FFC6B2"/>
<path fill-rule="evenodd" clip-rule="evenodd" d="M455.249 72.0757C452.67 71.6519 446.433 75.7971 443.313 82.553C441.566 86.3343 440.364 90.1756 442.369 96.3252C443.313 99.2181 445.289 99.5805 445.73 100.876C446.287 102.517 444.441 107.688 444.441 107.688L451.803 110.662C452.282 107.109 452.824 103.535 456.444 101.992C457.799 101.415 459.249 101.049 460.527 100.316C463.976 98.3392 465.818 94.0142 467.235 90.4727C468.292 87.8278 461.716 73.1358 455.249 72.0757Z" fill="#FFC6B2"/>
<path fill-rule="evenodd" clip-rule="evenodd" d="M446.485 172.479L434.151 167.53C434.151 167.53 397.546 235.413 397.698 254.247C397.85 273.08 447.973 310.788 447.973 310.788L456.427 303.482C456.427 303.482 440.952 276.497 432.679 266.983C424.406 257.467 446.485 172.479 446.485 172.479Z" fill="#FFB2A0"/>
<path fill-rule="evenodd" clip-rule="evenodd" d="M507.727 249.807C507.727 249.807 534.913 236.909 529.45 235.77C523.987 234.636 511.211 236.199 509.452 237.191C507.69 238.184 500.057 244.336 500.057 244.336L507.727 249.807Z" fill="#FFC6B2"/>
<path fill-rule="evenodd" clip-rule="evenodd" d="M458.601 171.89L439.89 178.698C439.89 178.698 421.173 261.023 428.319 273.948C435.461 286.878 455.529 278.322 484.108 262.724L508.046 249.656L500.056 244.338C500.056 244.338 472.2 249.796 464.377 255.239C464.377 255.239 468.46 243.671 473.903 227.343C479.346 211.013 483.1 194.344 458.601 171.89Z" fill="#FFC6B2"/>
<path fill-rule="evenodd" clip-rule="evenodd" d="M435.57 115.805C435.57 110.335 437.331 106.379 442.8 106.379C448.27 106.379 455.831 108.296 455.831 113.767C455.831 119.24 451.521 128.123 446.049 128.123C440.579 128.123 435.57 121.277 435.57 115.805Z" fill="#FFC6B2"/>
<path fill-rule="evenodd" clip-rule="evenodd" d="M439.889 105.595C439.889 105.595 422.881 87.1889 419.479 69.1571C416.075 51.128 410.295 21.8708 410.295 21.8708L403.831 23.7322C403.831 23.7322 400.767 63.7161 403.831 69.8384C406.891 75.9621 421.851 116.729 426.406 127.436L439.889 105.595Z" fill="#FFC6B2"/>
<path fill-rule="evenodd" clip-rule="evenodd" d="M458.162 119.941C458.162 119.941 459.47 114.215 480.978 106.433C502.485 98.6525 543.061 73.4314 543.061 73.4314L547.109 78.063C547.109 78.063 525.062 103.529 512.236 107.996C499.41 112.464 472.167 130.076 469.364 131.485C465.125 133.618 465.177 136.301 458.162 119.941Z" fill="#FFC6B2"/>
<path fill-rule="evenodd" clip-rule="evenodd" d="M439.889 105.595C439.889 105.595 422.609 111.196 422.609 137.491C422.609 137.491 422.62 173.504 426.692 180.055C426.692 180.055 433.313 181.752 441.568 180.055C450.223 178.276 458.601 171.89 458.601 171.89L472.194 131.081L470.569 111.96L452.086 108.392C452.086 108.392 457.388 133.168 438.205 122.517C434.477 120.447 443.69 106.39 443.69 106.39L439.889 105.595Z" fill="#22343D"/>
<path fill-rule="evenodd" clip-rule="evenodd" d="M425.268 126.981L416.753 109.241C416.753 109.241 417.974 98.4787 433.606 94.6224C433.606 94.6224 435.186 100.047 436.92 102.12C438.651 104.191 443.696 106.396 443.696 106.396L425.268 126.981Z" fill="#22343D"/>
<path fill-rule="evenodd" clip-rule="evenodd" d="M457.46 134.112L484.536 128.562C484.536 128.562 489.244 118.808 478.081 107.205C478.081 107.205 456.961 108.481 454.227 108.708C451.536 108.932 453.384 111.004 453.384 111.004L457.46 134.112Z" fill="#22343D"/>
<path fill-rule="evenodd" clip-rule="evenodd" d="M426.649 171.283C426.649 171.283 401.039 218.634 396.808 227.094C396.808 227.094 472.363 261.802 503.034 220.025C503.034 220.025 485.588 183.098 458.616 169.039L446.981 165.555L427.104 171.056" fill="#22343D"/>
<path fill-rule="evenodd" clip-rule="evenodd" d="M466.243 90.025C466.243 90.025 469.161 87.1076 470.955 89.127C472.75 91.1464 464.449 94.0638 464.449 94.0638L466.243 90.025Z" fill="#FFC6B2"/>
<path fill-rule="evenodd" clip-rule="evenodd" d="M519.606 50.2363C519.634 50.3371 518.507 50.8249 516.356 51.3359C514.21 51.8523 511.025 52.3211 507.07 52.4015C503.117 52.4805 498.416 52.129 493.27 51.4313C488.121 50.7486 482.528 49.7457 476.642 49.1039C470.767 48.4757 465.117 48.3613 460.114 49.1693C455.109 49.9637 450.777 51.603 447.466 53.5175C444.155 55.447 441.851 57.5877 440.436 59.2079C439.014 60.8294 438.373 61.865 438.229 61.7778C438.15 61.7369 438.578 60.5705 439.867 58.7527C441.148 56.9404 443.408 54.549 446.779 52.3865C450.148 50.2376 454.625 48.3912 459.828 47.4674C465.037 46.5299 470.864 46.6021 476.841 47.2425C482.825 47.8952 488.425 48.9554 493.514 49.7239C498.602 50.5074 503.201 50.9871 507.074 51.077C514.836 51.2937 519.535 49.916 519.606 50.2363Z" fill="#775298"/>
<path fill-rule="evenodd" clip-rule="evenodd" d="M451.387 88.3689C451.379 88.4833 450.548 88.5637 449.279 88.1427C448.966 88.0323 448.595 87.8878 448.25 87.5717C448.08 87.4136 447.922 87.2038 447.825 86.9517C447.686 86.5988 447.697 86.1982 447.835 85.8929C447.876 85.8316 447.873 85.6858 447.953 85.6831L448.2 85.6749C448.358 85.6531 448.545 85.7049 448.727 85.739C449.062 85.803 449.17 85.7935 449.409 85.8098C449.827 85.8194 450.26 85.7758 450.693 85.6804C452.465 85.307 453.65 84.0179 454.182 82.9578C454.739 81.8909 454.788 81.0883 454.937 81.0978C455.042 81.0842 455.249 81.9372 454.788 83.2249C454.554 83.8558 454.146 84.5794 453.488 85.2143C452.834 85.848 451.928 86.3685 450.899 86.5933C450.386 86.7078 449.869 86.7514 449.372 86.7255C449.155 86.7146 448.814 86.671 448.715 86.6492C448.624 86.6342 448.635 86.6138 448.617 86.6247C448.606 86.6356 448.601 86.6533 448.602 86.6792C448.639 86.8018 448.705 86.919 448.799 87.0239C448.989 87.2379 449.264 87.3973 449.533 87.5308C450.629 88.0691 451.407 88.2285 451.387 88.3689Z" fill="#FF7B5B"/>
<path fill-rule="evenodd" clip-rule="evenodd" d="M445.313 88.6842L455.288 92.6141C455.288 92.6141 446.522 98.6587 445.313 88.6842Z" fill="white"/>
<path fill-rule="evenodd" clip-rule="evenodd" d="M459.547 90.5752C459.193 91.2483 458.094 91.3655 457.093 90.8382C456.091 90.3122 455.567 89.3393 455.92 88.6675C456.274 87.9943 457.373 87.8758 458.375 88.4031C459.376 88.9305 459.901 89.902 459.547 90.5752Z" fill="#FFB2A0"/>
<path fill-rule="evenodd" clip-rule="evenodd" d="M448.415 84.6728C448.113 85.3704 447.027 85.5721 445.988 85.1224C444.95 84.6728 444.352 83.7434 444.654 83.0458C444.955 82.3481 446.043 82.1464 447.081 82.5961C448.119 83.0458 448.718 83.9751 448.415 84.6728Z" fill="#FFB2A0"/>
<path fill-rule="evenodd" clip-rule="evenodd" d="M444.72 99.6233C444.72 99.6233 448.217 102.552 451.865 101.609C451.865 101.609 450.607 103.495 445.765 102.802C445.765 102.802 446.167 100.724 444.72 99.6233Z" fill="#FFA192"/>
<path fill-rule="evenodd" clip-rule="evenodd" d="M458.59 84.3108C458.59 84.7469 458.236 85.1012 457.8 85.1012C457.364 85.1012 457.009 84.7469 457.009 84.3108C457.009 83.8748 457.364 83.5205 457.8 83.5205C458.236 83.5205 458.59 83.8748 458.59 84.3108Z" fill="#22343D"/>
<path fill-rule="evenodd" clip-rule="evenodd" d="M452.123 81.9815C452.123 82.4175 451.769 82.7718 451.333 82.7718C450.897 82.7718 450.544 82.4175 450.544 81.9815C450.544 81.5454 450.897 81.1912 451.333 81.1912C451.769 81.1912 452.123 81.5454 452.123 81.9815Z" fill="#22343D"/>
<path fill-rule="evenodd" clip-rule="evenodd" d="M461.129 82.2057C460.885 82.3092 460.414 81.7383 459.7 81.2764C459.001 80.794 458.292 80.5773 458.293 80.313C458.27 80.0595 459.259 79.8538 460.22 80.4983C461.182 81.1387 461.373 82.1294 461.129 82.2057Z" fill="#775298"/>
<path fill-rule="evenodd" clip-rule="evenodd" d="M449.732 78.3713C449.715 78.1247 450.564 77.814 451.701 77.844C452.858 77.8685 453.712 78.4299 453.593 78.6643C453.484 78.9014 452.679 78.7992 451.664 78.7801C450.643 78.7501 449.748 78.6397 449.732 78.3713Z" fill="#775298"/>
<path fill-rule="evenodd" clip-rule="evenodd" d="M453.293 321.663C453.293 321.663 457.442 336.39 461.726 335.184C466.01 333.98 462.789 313.426 462.789 313.426L458.515 306.67C458.515 306.67 462.53 341.075 453.293 321.663Z" fill="#22343D"/>
<path fill-rule="evenodd" clip-rule="evenodd" d="M505.613 240.015C505.613 240.015 508.63 236.723 512.287 236.175C515.945 235.626 529.02 234.071 530.94 235.808C532.861 237.546 520.343 243.371 520.343 243.371C520.343 243.371 524.704 240.591 522.893 239.558C519.693 237.728 505.613 240.015 505.613 240.015Z" fill="#22343D"/>
<path fill-rule="evenodd" clip-rule="evenodd" d="M500.425 243.958L504.518 252.269L506.752 251.029L501.293 242.842L500.425 243.958Z" fill="#22343D"/>
<path fill-rule="evenodd" clip-rule="evenodd" d="M454.653 300.149L444.605 309.205L447.583 311.687L456.017 302.507L454.653 300.149Z" fill="#22343D"/>
<path fill-rule="evenodd" clip-rule="evenodd" d="M244.587 209.994C241.729 202.902 240.631 195.007 236.367 188.662C230.232 179.531 218.446 175 213.467 165.189C211.353 161.022 210.689 156.255 210.667 151.583C210.626 142.339 213.394 132.511 220.534 126.637C228.738 119.887 241.048 119.981 250.657 124.515C260.264 129.05 267.604 137.282 273.845 145.88C280.087 154.477 285.551 163.703 292.819 171.451C298.208 177.196 304.6 182.151 308.659 188.9C319.788 207.403 308.338 230.815 288.692 237.493C271.429 243.359 250.559 224.819 244.587 209.994Z" fill="#22343D"/>
<path fill-rule="evenodd" clip-rule="evenodd" d="M219.994 340.493C221.702 341.898 219.838 340.925 222.324 342.544C221.769 348.754 216.026 352.666 216.026 352.666C216.026 352.666 215.783 362.552 213.938 362.349C212.089 362.148 213.273 352.829 213.273 352.829C213.273 352.829 209.492 362.567 207.892 361.947C206.294 361.329 212.082 350.156 212.082 350.156C212.082 350.156 203.969 361.323 202.855 359.562C201.742 357.803 208.88 347.027 208.88 347.027C208.88 347.027 200.066 356.269 199.069 354.772C198.075 353.28 209.589 340.428 209.589 340.428C204.26 340.369 204.637 336.742 204.637 336.742L217.617 337.512C217.617 337.512 219.208 339.845 219.994 340.493Z" fill="#FFC6B2"/>
<path fill-rule="evenodd" clip-rule="evenodd" d="M343.998 154.046C346.219 154.435 344.495 153.699 347.377 154.538C352.111 150.237 351.482 143.48 351.482 143.48C351.482 143.48 359.421 137.113 358.105 135.869C356.78 134.623 349.894 141.331 349.894 141.331C349.894 141.331 355.497 132.429 353.99 131.627C352.485 130.828 346.957 142.121 346.957 142.121C346.957 142.121 351.025 129.104 348.885 129.376C346.751 129.65 342.392 141.695 342.392 141.695C342.392 141.695 344.442 129.364 342.598 129.559C340.753 129.753 337.769 145.907 337.769 145.907C333.422 142.369 330.38 144.634 330.38 144.634L339.893 153.962C339.893 153.962 342.977 153.868 343.998 154.046Z" fill="#FFC6B2"/>
<path fill-rule="evenodd" clip-rule="evenodd" d="M289.657 208.036C293.672 207.409 305.918 215.345 302.802 231.461C302.542 232.814 300.774 235.793 300.334 237.025C299.778 238.585 304.11 244.296 304.11 244.296L292.927 247.869C292.45 244.491 293.253 239.554 289.639 238.086C288.287 237.537 286.84 237.19 285.565 236.493C282.121 234.613 280.283 230.499 278.869 227.132C277.813 224.615 277.009 221.909 277.039 219.178C277.112 212.302 283.202 209.044 289.657 208.036Z" fill="#FFC6B2"/>
<path fill-rule="evenodd" clip-rule="evenodd" d="M312.051 252.173C312.051 246.373 310.211 244.158 304.123 244.158C298.035 244.158 289.998 246.373 289.998 252.173C289.998 257.976 294.297 265.236 300.388 265.236C306.475 265.236 312.051 257.976 312.051 252.173Z" fill="#FFC6B2"/>
<path fill-rule="evenodd" clip-rule="evenodd" d="M307.243 241.347C307.243 241.347 326.174 221.828 329.96 202.708C333.748 183.589 340.183 152.564 340.183 152.564L347.377 154.537C347.377 154.537 350.787 196.937 347.377 203.43C343.971 209.924 324.658 255.018 325.037 266.561L307.243 241.347Z" fill="#FFC6B2"/>
<path fill-rule="evenodd" clip-rule="evenodd" d="M273.498 250.797C273.498 250.797 267.061 251.879 257.216 274.247C247.371 296.613 217.08 338.253 217.08 338.253L222.003 342.786C222.003 342.786 251.536 320.783 257.216 307.436C262.894 294.088 270.088 277.494 273.498 278.214C276.904 278.937 291.293 259.093 273.498 250.797Z" fill="#FFC6B2"/>
<path fill-rule="evenodd" clip-rule="evenodd" d="M324.18 269.543L332.994 245.213C332.994 245.213 331.635 233.802 314.237 229.712L304.381 243.912L324.18 269.543Z" fill="#FF7B5B"/>
<path fill-rule="evenodd" clip-rule="evenodd" d="M276.436 248.931C276.436 248.931 266.037 249.807 257.608 268.321C257.608 268.321 266.878 281.119 273.659 281.551C273.659 281.551 298.847 260.021 276.436 248.931Z" fill="#FF7B5B"/>
<path fill-rule="evenodd" clip-rule="evenodd" d="M305.01 468.488C305.01 468.488 289.998 499.143 288.243 493.468C286.491 487.79 287.07 474.155 288.01 472.21C288.954 470.262 295.092 461.664 295.092 461.664L305.01 468.488Z" fill="#FFC6B2"/>
<path fill-rule="evenodd" clip-rule="evenodd" d="M306.157 322.747L319.885 317.498C319.885 317.498 360.628 389.484 360.459 409.456C360.29 429.425 304.502 469.413 304.502 469.413L295.091 461.664C295.091 461.664 321.534 422.785 330.741 412.696C335.346 407.65 302.384 382.924 297.391 359.132C292.399 335.341 306.157 322.747 306.157 322.747Z" fill="#654287"/>
<path fill-rule="evenodd" clip-rule="evenodd" d="M223.615 452.429C223.615 452.429 195.535 473.128 196.702 467.319C197.874 461.504 204.943 449.639 206.716 448.318C208.492 447 218.079 442.035 218.079 442.035L223.615 452.429Z" fill="#FFC6B2"/>
<path fill-rule="evenodd" clip-rule="evenodd" d="M268.806 348.238L309.423 324.698C309.423 324.698 311.035 406.468 301.284 424.148C291.535 441.828 222.719 453.029 222.719 453.029L218.079 442.035C218.079 442.035 260.535 416.739 273.57 411.789C286.606 406.836 268.806 348.238 268.806 348.238Z" fill="#775298"/>
<path fill-rule="evenodd" clip-rule="evenodd" d="M292.996 308.596C292.996 308.596 263.089 319.185 268.807 348.238C274.523 377.29 284.052 382.736 284.052 382.736L301.203 354.594L318.422 317.738L301.203 315.554L292.996 308.596Z" fill="#775298"/>
<path fill-rule="evenodd" clip-rule="evenodd" d="M307.243 241.347C307.243 241.347 329.261 253.687 329.261 281.57C329.261 281.57 326.464 313.359 321.93 320.305C321.93 320.305 314.561 322.105 305.373 320.305C295.74 318.419 286.417 311.648 286.417 311.648L278.892 272.728L273.039 250.004L276.212 248.957L292.772 247.138C292.772 247.138 290.393 271.875 308.883 259.591C312.778 257.004 304.035 244.105 304.035 244.105L307.243 241.347Z" fill="#FF7B5B"/>
<path fill-rule="evenodd" clip-rule="evenodd" d="M320.72 135.979L366.885 162.91L392.854 113.858L349.573 89.8125L320.72 135.979Z" fill="white"/>
<path fill-rule="evenodd" clip-rule="evenodd" d="M384.944 370.787L417.961 350.347L390.683 302.733L360.501 322.304L384.944 370.787Z" fill="white"/>
<path fill-rule="evenodd" clip-rule="evenodd" d="M222.376 167.891C222.463 167.813 223.482 168.738 225.094 170.626C226.699 172.516 228.889 175.389 231.087 179.268C233.293 183.129 235.476 188.029 237.035 193.717C238.648 199.362 239.73 205.708 242.21 211.821C243.498 214.841 245.058 217.652 246.915 220.137C248.789 222.606 250.867 224.773 253.006 226.663C257.377 230.342 261.957 232.872 266.038 234.334C270.115 235.817 273.607 236.482 276.035 236.72C278.461 236.989 279.832 237.028 279.833 237.188C279.84 237.287 278.473 237.496 275.982 237.448C273.493 237.429 269.87 236.953 265.602 235.585C261.331 234.236 256.506 231.74 251.893 227.98C249.629 226.048 247.43 223.811 245.449 221.239C243.484 218.653 241.824 215.696 240.477 212.531C237.893 206.141 236.873 199.74 235.37 194.169C233.935 188.58 231.94 183.77 229.923 179.9C227.919 176.019 225.929 173.077 224.519 171.071C223.101 169.07 222.269 167.985 222.376 167.891Z" fill="#22343D"/>
<path fill-rule="evenodd" clip-rule="evenodd" d="M279.094 136.383C279.434 136.331 279.763 140.876 282.306 147.598C283.576 150.946 285.465 154.798 288.178 158.66C289.533 160.593 291.094 162.498 292.859 164.396C294.613 166.303 296.524 168.239 298.329 170.411C301.949 174.795 304.44 179.532 306.785 183.714C309.114 187.937 310.969 191.954 311.912 195.547C312.895 199.13 312.953 202.214 312.641 204.259C312.315 206.314 311.804 207.355 311.719 207.326C311.557 207.284 311.822 206.184 311.914 204.193C311.995 202.205 311.741 199.308 310.642 195.922C309.579 192.522 307.667 188.691 305.281 184.558C302.858 180.426 300.346 175.784 296.887 171.606C295.151 169.516 293.268 167.586 291.504 165.632C289.73 163.688 288.116 161.663 286.755 159.637C284.024 155.58 282.201 151.537 281.059 148.042C279.891 144.548 279.394 141.599 279.158 139.568C278.925 137.532 278.988 136.393 279.094 136.383Z" fill="#22343D"/>
<path fill-rule="evenodd" clip-rule="evenodd" d="M293.247 225.553C293.23 225.423 293.982 225.303 294.692 224.469C294.855 224.277 295.02 223.996 295.018 223.832C295.013 223.657 294.891 223.351 294.68 223.176C294.46 222.979 294.216 222.884 293.895 222.917C293.562 222.941 293.158 223.106 292.629 223.185C291.471 223.339 290.567 222.685 289.973 222.155C289.363 221.598 288.897 221.032 288.549 220.525C287.857 219.505 287.642 218.767 287.748 218.713C287.871 218.648 288.288 219.258 289.068 220.114C289.458 220.539 289.95 221.027 290.53 221.497C291.103 221.953 291.803 222.369 292.502 222.259C292.873 222.211 293.305 222.038 293.831 222.002C294.366 221.949 294.962 222.196 295.289 222.564C295.636 222.94 295.831 223.383 295.79 223.907C295.687 224.444 295.402 224.695 295.166 224.929C294.148 225.82 293.215 225.675 293.247 225.553Z" fill="#FF7B5B"/>
<path fill-rule="evenodd" clip-rule="evenodd" d="M298.703 226.321L289.837 229.545C289.837 229.545 297.36 236.127 298.703 226.321Z" fill="white"/>
<path fill-rule="evenodd" clip-rule="evenodd" d="M288.952 225.772C289.306 226.446 288.782 227.418 287.78 227.944C286.779 228.472 285.681 228.355 285.326 227.681C284.972 227.01 285.497 226.037 286.498 225.509C287.5 224.982 288.598 225.099 288.952 225.772Z" fill="#FFB2A0"/>
<path fill-rule="evenodd" clip-rule="evenodd" d="M299.463 220.382C299.753 221.085 299.14 222.004 298.095 222.436C297.049 222.869 295.965 222.65 295.675 221.947C295.385 221.244 295.998 220.325 297.044 219.893C298.09 219.461 299.173 219.679 299.463 220.382Z" fill="#FFB2A0"/>
<path fill-rule="evenodd" clip-rule="evenodd" d="M290.099 238.322C290.099 238.322 293.066 238.926 296.847 237.981C296.847 237.981 294.983 239.792 291.937 240.213C291.937 240.213 291.255 238.952 290.099 238.322Z" fill="#FFA192"/>
<path fill-rule="evenodd" clip-rule="evenodd" d="M293.13 218.392C293.462 218.674 293.503 219.172 293.221 219.505C292.939 219.837 292.442 219.878 292.108 219.596C291.775 219.316 291.734 218.817 292.016 218.483C292.299 218.151 292.797 218.11 293.13 218.392Z" fill="#22343D"/>
<path fill-rule="evenodd" clip-rule="evenodd" d="M287.172 221.82C287.504 222.102 287.545 222.6 287.263 222.933C286.982 223.265 286.484 223.306 286.15 223.024C285.817 222.742 285.776 222.245 286.058 221.911C286.34 221.578 286.839 221.537 287.172 221.82Z" fill="#22343D"/>
<path fill-rule="evenodd" clip-rule="evenodd" d="M293.165 215.093C293.086 215.347 292.346 215.337 291.533 215.584C290.712 215.805 290.09 216.205 289.888 216.032C289.679 215.888 290.162 214.999 291.275 214.683C292.386 214.363 293.265 214.859 293.165 215.093Z" fill="#22343D"/>
<path fill-rule="evenodd" clip-rule="evenodd" d="M282.872 221.31C282.673 221.163 282.985 220.315 283.743 219.468C284.509 218.601 285.49 218.312 285.592 218.553C285.702 218.789 285.104 219.338 284.432 220.1C283.751 220.859 283.088 221.472 282.872 221.31Z" fill="#22343D"/>
<path fill-rule="evenodd" clip-rule="evenodd" d="M279.528 227.893C279.528 227.893 276.684 225.505 275.319 227.666C273.955 229.827 281.462 230.965 281.462 230.965L279.528 227.893Z" fill="#FFC6B2"/>
<path fill-rule="evenodd" clip-rule="evenodd" d="M211.15 445.703C211.15 445.703 207.073 447.475 206.01 448.54C204.946 449.603 195.197 466.442 196.438 468.569C197.679 470.696 207.456 463.476 207.456 463.476C207.456 463.476 199.275 465.025 211.15 445.703Z" fill="#775298"/>
<path fill-rule="evenodd" clip-rule="evenodd" d="M290.706 467.97C290.706 467.97 287.81 471.1 287.363 472.538C286.917 473.973 286.117 493.415 288.206 494.72C290.293 496.027 296 485.299 296 485.299C296 485.299 289.177 490.643 290.706 468.015" fill="#775298"/>
</svg>
