<svg width="144" height="29" viewBox="0 0 144 29" fill="none" xmlns="http://www.w3.org/2000/svg">
<path id="Productly" fill-rule="evenodd" clip-rule="evenodd" d="M58.5755 5.8752C57.6863 5.3184 56.6232 5.04 55.3861 5.04C54.0523 5.04 52.8587 5.3712 51.8052 6.0336C50.7518 6.696 49.9206 7.64639 49.3117 8.8848C48.7028 10.1232 48.3984 11.5872 48.3984 13.2768C48.3984 14.9472 48.7028 16.4064 49.3117 17.6544C49.9206 18.9024 50.7518 19.8576 51.8052 20.52C52.8587 21.1824 54.0523 21.5136 55.3861 21.5136C56.6232 21.5136 57.6863 21.2352 58.5755 20.6784C59.4646 20.1216 60.1122 19.3632 60.5181 18.4032V21.312H65.4762V0H60.5181V8.1504C60.1122 7.1904 59.4646 6.432 58.5755 5.8752ZM5.10944 21.312V14.1696H8.18287C9.78725 14.1696 11.15 13.8864 12.2711 13.32C13.3922 12.7536 14.2379 11.976 14.8081 10.9872C15.3784 9.9984 15.6635 8.87041 15.6635 7.6032C15.6635 5.56799 15.0256 3.95041 13.7498 2.7504C12.4741 1.55039 10.6184 0.9504 8.18287 0.9504H0.151367V21.312H5.10944ZM10.6184 7.6032C10.6184 9.35041 9.62294 10.224 7.63197 10.224H5.10944V4.9248H7.63197C9.62294 4.9248 10.6184 5.81759 10.6184 7.6032ZM23.0571 8.2656C23.6757 7.2864 24.473 6.5088 25.4492 5.9328C26.4253 5.3568 27.4836 5.0688 28.6241 5.0688V10.3392H27.2033C25.8889 10.3392 24.8693 10.6176 24.1444 11.1744C23.4195 11.7312 23.0571 12.672 23.0571 13.9968V21.312H18.099V5.2416H23.0571V8.2656ZM42.585 6.0336C41.3189 5.3712 39.8836 5.04 38.2793 5.04C36.6749 5.04 35.2348 5.3712 33.9591 6.0336C32.6833 6.696 31.683 7.65119 30.9581 8.8992C30.2333 10.1472 29.8708 11.6064 29.8708 13.2768C29.8708 14.9472 30.2333 16.4064 30.9581 17.6544C31.683 18.9024 32.6833 19.8576 33.9591 20.52C35.2348 21.1824 36.6749 21.5136 38.2793 21.5136C39.8836 21.5136 41.3189 21.1824 42.585 20.52C43.8511 19.8576 44.8465 18.9024 45.5714 17.6544C46.2963 16.4064 46.6587 14.9472 46.6587 13.2768C46.6587 11.6064 46.2963 10.1472 45.5714 8.8992C44.8465 7.65119 43.8511 6.696 42.585 6.0336ZM38.2793 9.3024C37.3321 9.3024 36.5348 9.6432 35.8872 10.3248C35.2397 11.0064 34.9159 11.9904 34.9159 13.2768C34.9159 14.5632 35.2397 15.5424 35.8872 16.2144C36.5348 16.8864 37.3321 17.2224 38.2793 17.2224C39.2264 17.2224 40.0189 16.8864 40.6568 16.2144C41.2947 15.5424 41.6136 14.5632 41.6136 13.2768C41.6136 11.9904 41.2947 11.0064 40.6568 10.3248C40.0189 9.6432 39.2264 9.3024 38.2793 9.3024ZM56.9808 9.36C55.9176 9.36 55.0623 9.7056 54.4147 10.3968C53.7672 11.088 53.4434 12.048 53.4434 13.2768C53.4434 14.5056 53.7672 15.4656 54.4147 16.1568C55.0623 16.848 55.9176 17.1936 56.9808 17.1936C58.0246 17.1936 58.8799 16.8384 59.5468 16.128C60.2137 15.4176 60.5471 14.4672 60.5471 13.2768C60.5471 12.0672 60.2137 11.112 59.5468 10.4112C58.8799 9.7104 58.0246 9.36 56.9808 9.36ZM80.0025 21.312H84.9896V5.2416H80.0025V13.7664C80.0025 14.9376 79.7125 15.84 79.1326 16.4736C78.5527 17.1072 77.7602 17.424 76.7551 17.424C75.7886 17.424 75.0202 17.1216 74.45 16.5168C73.8798 15.912 73.5947 15.0624 73.5947 13.968V5.2416H68.6656V14.5728C68.6656 16.7232 69.2117 18.4128 70.3038 19.6416C71.3959 20.8704 72.8698 21.4848 74.7255 21.4848C75.9432 21.4848 77.0112 21.2064 77.9294 20.6496C78.8475 20.0928 79.5386 19.344 80.0025 18.4032V21.312ZM95.7176 5.04C97.8052 5.04 99.5545 5.61119 100.966 6.7536C102.377 7.89601 103.266 9.46559 103.633 11.4624H98.3851C98.2304 10.7712 97.9115 10.2336 97.4282 9.8496C96.945 9.4656 96.3361 9.2736 95.6016 9.2736C94.7317 9.2736 94.0165 9.6144 93.456 10.296C92.8954 10.9776 92.6151 11.9712 92.6151 13.2768C92.6151 14.5824 92.8954 15.576 93.456 16.2576C94.0165 16.9392 94.7317 17.28 95.6016 17.28C96.3361 17.28 96.945 17.088 97.4282 16.704C97.9115 16.32 98.2304 15.7824 98.3851 15.0912H103.633C103.266 17.088 102.377 18.6576 100.966 19.8C99.5545 20.9424 97.8052 21.5136 95.7176 21.5136C94.1325 21.5136 92.7263 21.1824 91.4988 20.52C90.2714 19.8576 89.3097 18.9024 88.6139 17.6544C87.918 16.4064 87.5701 14.9472 87.5701 13.2768C87.5701 11.5872 87.9132 10.1232 88.5994 8.8848C89.2856 7.64639 90.2472 6.696 91.4843 6.0336C92.7215 5.3712 94.1325 5.04 95.7176 5.04ZM115.376 21.312V17.0784H113.81C113.192 17.0784 112.752 16.9536 112.491 16.704C112.23 16.4544 112.099 16.0128 112.099 15.3792V9.3888H115.347V5.2416H112.099V1.296H107.141V5.2416H104.967V9.3888H107.141V15.2928C107.141 17.4432 107.668 18.984 108.722 19.9152C109.775 20.8464 111.249 21.312 113.143 21.312H115.376ZM123.117 0V21.312H118.159V0H123.117ZM134.164 15.0912L130.279 5.2416H124.741L131.526 20.7072L127.728 28.9728H133.179L143.269 5.2416H137.789L134.164 15.0912Z" fill="#173A56"/>
</svg>
